<?xml version="1.0" encoding="UTF-8"?>
<svg width="20" height="20" version="1.1" viewBox="0 0 1200 1200" xmlns="http://www.w3.org/2000/svg">
 <path transform="scale(50)" d="m9.6 20.4-5.1-5.1c-0.8-0.8-0.8-2 0-2.8l6.5-6.3 6.4 6.4c0.8 0.8 0.8 2 0 2.8l-5.1 5.1c-0.7 0.7-1.9 0.7-2.7-0.1z" fill="none" stroke="#000" stroke-miterlimit="10" stroke-width="2"/>
 <path d="m1100 1e3c0 55-45 100-100 100s-100-45-100-100 100-200 100-200 100 145 100 200z"/>
 <path d="m200 700c0 25 10 50 25 70l255 255c40 40 100 40 140 0l255-255c15-20 25-45 25-70z"/>
 <path transform="scale(50)" d="m7.5 2.7 7.9 7.9" fill="none" stroke="#000" stroke-miterlimit="10" stroke-width="2"/>
</svg>
